<?xml version="1.0" encoding="UTF-8"?>
<svg xmlns="http://www.w3.org/2000/svg" xmlns:xlink="http://www.w3.org/1999/xlink" width="62pt" height="62pt" viewBox="0 0 62 62" version="1.1">
<g id="surface1">
<path style=" stroke:none;fill-rule:nonzero;fill:rgb(0%,0%,0%);fill-opacity:1;" d="M 7.75 2.953125 C 7.75 4.515625 7.796875 5.824219 7.847656 5.859375 C 7.894531 5.886719 13.140625 7.300781 19.496094 9.007812 L 31.0625 12.097656 L 42.527344 9.035156 C 48.824219 7.351562 54.070312 5.933594 54.175781 5.898438 C 54.347656 5.824219 54.371094 5.460938 54.371094 2.96875 C 54.371094 1.148438 54.324219 0.121094 54.25 0.121094 C 54.175781 0.121094 48.933594 2.710938 42.601562 5.886719 L 31.0625 11.648438 L 19.53125 5.886719 C 13.1875 2.710938 7.929688 0.121094 7.871094 0.121094 C 7.796875 0.121094 7.75 1.148438 7.75 2.953125 Z M 7.75 2.953125 "/>
<path style=" stroke:none;fill-rule:nonzero;fill:rgb(0%,0%,0%);fill-opacity:1;" d="M 0 31.046875 C 0 45.011719 0.046875 54.261719 0.109375 54.296875 C 0.277344 54.40625 28.785156 62 29 62 C 29.160156 62 29.183594 59.433594 29.183594 38.824219 C 29.183594 24.859375 29.136719 15.609375 29.074219 15.574219 C 28.90625 15.464844 0.398438 7.871094 0.179688 7.871094 C 0.0234375 7.871094 0 10.4375 0 31.046875 Z M 0 31.046875 "/>
<path style=" stroke:none;fill-rule:nonzero;fill:rgb(0%,0%,0%);fill-opacity:1;" d="M 47.46875 11.671875 C 39.707031 13.742188 33.265625 15.488281 33.15625 15.535156 C 32.949219 15.609375 32.9375 16.832031 32.9375 38.8125 C 32.9375 59.445312 32.960938 62 33.117188 62 C 33.265625 62 57.917969 55.472656 61.308594 54.527344 L 62 54.335938 L 62 31.109375 C 62 9.058594 61.988281 7.871094 61.792969 7.882812 C 61.671875 7.882812 55.230469 9.589844 47.46875 11.671875 Z M 47.46875 11.671875 "/>
</g>
</svg>
