<?xml version="1.0" encoding="UTF-8"?>
<svg xmlns="http://www.w3.org/2000/svg" xmlns:xlink="http://www.w3.org/1999/xlink" width="24pt" height="24pt" viewBox="0 0 24 24" version="1.1">
<g id="surface1">
<path style=" stroke:none;fill-rule:nonzero;fill:#706a67;fill-opacity:1;" d="M 2.761719 5.605469 C 1.578125 7.421875 3.949219 7.972656 12.316406 7.738281 C 19.34375 7.578125 20.921875 7.261719 20.921875 6.316406 C 20.921875 5.367188 19.34375 5.050781 12.078125 4.894531 C 6.238281 4.738281 3.078125 4.972656 2.761719 5.605469 Z M 2.761719 5.605469 "/>
<path style=" stroke:none;fill-rule:nonzero;fill:#706a67;fill-opacity:1;" d="M 2.761719 11.132812 C 1.578125 12.949219 3.949219 13.5 12.316406 13.261719 C 19.34375 13.105469 20.921875 12.789062 20.921875 11.84375 C 20.921875 10.894531 19.34375 10.578125 12.078125 10.421875 C 6.238281 10.261719 3.078125 10.5 2.761719 11.132812 Z M 2.761719 11.132812 "/>
<path style=" stroke:none;fill-rule:nonzero;fill:#706a67;fill-opacity:1;" d="M 2.761719 16.65625 C 1.578125 18.472656 3.949219 19.027344 12.316406 18.789062 C 19.34375 18.632812 20.921875 18.316406 20.921875 17.367188 C 20.921875 16.421875 19.34375 16.105469 12.078125 15.949219 C 6.238281 15.789062 3.078125 16.027344 2.761719 16.65625 Z M 2.761719 16.65625 "/>
</g>
</svg>
