<?xml version="1.0" encoding="UTF-8"?>
<svg xmlns="http://www.w3.org/2000/svg" xmlns:xlink="http://www.w3.org/1999/xlink" width="30pt" height="30pt" viewBox="0 0 30 30" version="1.1">
<g id="surface1">
<path style=" stroke:none;fill-rule:nonzero;fill:#706a67;fill-opacity:1;" d="M 14.238281 6.210938 C 13.746094 6.316406 3.398438 10.183594 2.8125 10.488281 C 2.367188 10.722656 2.355469 11.074219 2.789062 11.296875 C 2.964844 11.378906 5.53125 12.398438 8.496094 13.546875 L 13.886719 15.644531 L 15.058594 15.644531 L 16.230469 15.632812 L 21.398438 13.441406 C 24.246094 12.234375 26.601562 11.25 26.648438 11.25 C 26.683594 11.25 26.71875 12.667969 26.71875 14.390625 C 26.71875 17.402344 26.707031 17.578125 26.425781 18.515625 C 26.261719 19.054688 26.132812 19.535156 26.132812 19.59375 C 26.132812 19.640625 26.53125 19.6875 27.011719 19.6875 L 27.890625 19.6875 L 27.820312 19.359375 C 27.773438 19.183594 27.644531 18.761719 27.515625 18.410156 C 27.328125 17.847656 27.304688 17.367188 27.304688 14.332031 C 27.304688 12.328125 27.351562 10.792969 27.421875 10.675781 C 27.503906 10.511719 27.480469 10.40625 27.328125 10.277344 C 27.105469 10.066406 17.203125 6.503906 16.171875 6.257812 C 15.457031 6.082031 14.941406 6.070312 14.238281 6.210938 Z M 14.238281 6.210938 "/>
<path style=" stroke:none;fill-rule:nonzero;fill:#706a67;fill-opacity:1;" d="M 6.820312 16.488281 C 6.890625 19.042969 6.9375 19.089844 10.816406 20.789062 C 13.945312 22.148438 14.589844 22.335938 15.550781 22.148438 C 16.335938 22.007812 21.609375 19.769531 22.148438 19.347656 C 22.371094 19.171875 22.675781 18.796875 22.828125 18.515625 C 23.050781 18.058594 23.085938 17.824219 23.085938 16.441406 L 23.085938 14.882812 L 20.742188 14.882812 L 18.773438 15.714844 C 15.140625 17.25 15.09375 17.25 11.132812 15.714844 C 9 14.894531 8.953125 14.882812 7.863281 14.882812 L 6.773438 14.882812 Z M 6.820312 16.488281 "/>
</g>
</svg>
