<?xml version="1.0" encoding="UTF-8"?>
<svg xmlns="http://www.w3.org/2000/svg" xmlns:xlink="http://www.w3.org/1999/xlink" width="54pt" height="69pt" viewBox="0 0 54 69" version="1.1">
<g id="surface1">
<path style=" stroke:none;fill-rule:nonzero;fill:rgb(0%,0%,0%);fill-opacity:1;" d="M 15.039062 5.117188 L 3.300781 10.160156 L 3.082031 17.835938 C 2.933594 23.464844 2.566406 25.65625 1.835938 26.3125 C 0.21875 27.628906 0.511719 30.480469 2.199219 31.429688 C 5.503906 33.183594 8.070312 29.164062 5.503906 26.3125 C 4.621094 25.289062 4.402344 23.535156 4.550781 17.761719 L 4.769531 10.453125 L 15.40625 15.058594 C 21.277344 17.617188 26.488281 19.660156 27 19.660156 C 27.511719 19.734375 32.210938 17.90625 37.417969 15.714844 C 42.628906 13.449219 47.835938 11.328125 48.9375 10.890625 C 50.84375 10.160156 50.332031 9.867188 40.058594 5.410156 C 34.042969 2.851562 28.539062 0.585938 27.953125 0.4375 C 27.292969 0.292969 21.496094 2.410156 15.039062 5.117188 Z M 15.039062 5.117188 "/>
<path style=" stroke:none;fill-rule:nonzero;fill:rgb(0%,0%,0%);fill-opacity:1;" d="M 12.546875 19.808594 C 11.445312 23.097656 11.519531 28.578125 12.839844 31.648438 C 15.335938 37.644531 23.332031 42.320312 29.347656 41.222656 C 38.152344 39.617188 44.242188 31.578125 42.996094 23.171875 C 42.113281 17.25 41.675781 17.105469 33.898438 20.394531 L 27.148438 23.242188 L 20.46875 20.394531 C 16.875 18.859375 13.71875 17.542969 13.574219 17.542969 C 13.5 17.542969 12.988281 18.566406 12.546875 19.808594 Z M 12.546875 19.808594 "/>
<path style=" stroke:none;fill-rule:nonzero;fill:rgb(0%,0%,0%);fill-opacity:1;" d="M 11.664062 39.761719 C 7.777344 41.152344 4.035156 43.636719 1.835938 46.121094 C 0.0742188 48.242188 0 48.828125 0 57.085938 C 0 61.910156 0.367188 66.515625 0.734375 67.320312 C 1.46875 68.632812 2.566406 68.707031 27 68.707031 C 45.855469 68.707031 52.753906 68.488281 53.414062 67.832031 C 54 67.246094 54.292969 63.738281 54.292969 56.941406 C 54.292969 48.023438 54.148438 46.78125 52.824219 45.097656 C 50.773438 42.539062 44.167969 39.46875 40.28125 39.25 L 37.050781 39.105469 L 32.28125 49.847656 C 29.640625 55.769531 27.367188 60.667969 27.148438 60.667969 C 26.925781 60.667969 24.726562 55.84375 22.304688 49.847656 C 17.460938 38.007812 17.167969 37.714844 11.664062 39.761719 Z M 11.664062 39.761719 "/>
</g>
</svg>
