<?xml version="1.0" encoding="UTF-8"?>
<svg xmlns="http://www.w3.org/2000/svg" xmlns:xlink="http://www.w3.org/1999/xlink" width="20pt" height="20pt" viewBox="0 0 20 20" version="1.1">
<g id="surface1">
<path style=" stroke:none;fill-rule:nonzero;fill:rgb(43.921569%,41.568627%,40.392157%);fill-opacity:1;" d="M 8.476562 0.0820312 C 4.796875 0.59375 1.679688 3.144531 0.53125 6.589844 C 0.152344 7.746094 0.046875 8.429688 0.046875 9.71875 C 0.046875 11.011719 0.152344 11.691406 0.53125 12.847656 C 1.457031 15.628906 3.8125 17.980469 6.589844 18.90625 C 7.746094 19.285156 8.429688 19.390625 9.71875 19.390625 C 11.011719 19.390625 11.691406 19.285156 12.847656 18.90625 C 15.628906 17.980469 17.980469 15.628906 18.90625 12.847656 C 19.285156 11.691406 19.390625 11.011719 19.390625 9.71875 C 19.390625 8.429688 19.285156 7.746094 18.90625 6.589844 C 18.125 4.257812 16.289062 2.15625 14.039062 1.019531 C 13.394531 0.699219 12.390625 0.359375 11.578125 0.1875 C 10.851562 0.0390625 9.195312 -0.0195312 8.476562 0.0820312 Z M 10.933594 1.328125 C 12.101562 1.503906 13.363281 1.9375 13.363281 2.148438 C 13.363281 2.210938 13.292969 2.316406 13.214844 2.390625 C 13.023438 2.566406 12.554688 2.515625 12.226562 2.277344 C 12.042969 2.148438 11.921875 2.117188 11.710938 2.15625 C 11.054688 2.253906 9.863281 3.074219 9.667969 3.554688 C 9.550781 3.832031 9.597656 3.984375 9.789062 3.910156 C 10.707031 3.523438 11.042969 4.058594 10.339844 4.796875 C 10.089844 5.070312 9.917969 5.0625 9.394531 4.785156 C 8.863281 4.503906 8.527344 4.480469 8.488281 4.722656 C 8.457031 4.949219 7.722656 5.324219 7.207031 5.375 C 7 5.390625 6.832031 5.4375 6.832031 5.460938 C 6.832031 5.488281 6.941406 5.609375 7.0625 5.730469 C 7.359375 6.011719 7.332031 6.234375 7.015625 6.316406 C 6.886719 6.347656 6.734375 6.425781 6.6875 6.484375 C 6.46875 6.75 7.402344 6.902344 7.769531 6.660156 C 7.871094 6.589844 7.980469 6.429688 8.011719 6.308594 C 8.050781 6.121094 8.117188 6.058594 8.351562 5.988281 C 8.785156 5.863281 9.015625 5.988281 9.6875 6.734375 C 10.328125 7.433594 10.5625 7.59375 10.957031 7.59375 L 11.210938 7.59375 L 11.140625 7.289062 C 11.070312 7.046875 11.078125 6.941406 11.183594 6.71875 C 11.398438 6.269531 11.980469 5.988281 12.367188 6.148438 C 12.726562 6.292969 12.714844 6.425781 12.324219 6.847656 C 11.976562 7.210938 11.96875 7.230469 12.109375 7.332031 C 12.347656 7.511719 12.1875 7.671875 11.273438 8.125 C 10.8125 8.359375 10.371094 8.597656 10.289062 8.648438 C 9.96875 8.855469 9.492188 8.617188 8.125 7.578125 C 7.609375 7.183594 7.175781 7.023438 6.816406 7.097656 C 6.378906 7.195312 5.460938 7.671875 5.222656 7.917969 C 5.101562 8.050781 4.890625 8.382812 4.757812 8.65625 C 4.546875 9.089844 4.519531 9.234375 4.519531 9.792969 C 4.519531 10.347656 4.546875 10.492188 4.722656 10.820312 C 5.171875 11.675781 5.792969 12.042969 7.03125 12.171875 L 7.828125 12.253906 L 8.117188 12.566406 C 8.496094 12.976562 8.683594 13.578125 8.882812 14.921875 C 9.125 16.613281 9.136719 16.644531 9.628906 17.046875 C 10.167969 17.492188 10.625 17.757812 11.113281 17.925781 L 11.503906 18.058594 L 11.046875 18.117188 C 10.1875 18.246094 8.609375 18.183594 7.859375 18 C 5.085938 17.332031 2.960938 15.542969 1.882812 12.980469 C 1.542969 12.1875 1.335938 11.367188 1.390625 11.011719 C 1.433594 10.644531 1.710938 10.101562 2.019531 9.734375 C 2.238281 9.476562 2.269531 9.402344 2.210938 9.242188 C 2.128906 9.035156 1.730469 8.671875 1.464844 8.574219 C 1.265625 8.496094 1.265625 8.550781 1.523438 7.480469 C 1.609375 7.144531 1.828125 6.5625 2.003906 6.179688 L 2.328125 5.488281 L 2.734375 5.441406 C 3.472656 5.351562 4.199219 4.792969 4.714844 3.910156 C 4.84375 3.699219 4.980469 3.472656 5.035156 3.394531 C 5.109375 3.28125 5.097656 3.226562 4.902344 3.066406 C 4.65625 2.847656 4.65625 2.847656 5.390625 2.40625 C 7.023438 1.425781 9.035156 1.03125 10.933594 1.328125 Z M 13.980469 10.105469 C 14.570312 10.226562 14.792969 10.246094 14.972656 10.179688 C 15.101562 10.136719 15.242188 10.128906 15.289062 10.160156 C 15.339844 10.1875 15.710938 10.226562 16.109375 10.25 C 17.054688 10.304688 17.21875 10.40625 17.402344 11.085938 C 17.5625 11.664062 17.640625 11.761719 17.839844 11.632812 C 18.046875 11.503906 18.039062 11.601562 17.796875 12.347656 C 17.132812 14.40625 15.632812 16.179688 13.71875 17.199219 C 13.121094 17.519531 12.332031 17.828125 11.8125 17.949219 L 11.601562 18 L 11.8125 17.820312 C 12.003906 17.652344 12.027344 17.578125 12.078125 16.886719 C 12.1875 15.527344 12.414062 14.964844 13.941406 12.296875 C 14.335938 11.601562 14.65625 10.980469 14.65625 10.910156 C 14.65625 10.746094 14.546875 10.75 13.957031 10.933594 C 13.371094 11.113281 13.074219 11.125 12.894531 10.957031 C 12.703125 10.785156 12.714844 10.296875 12.90625 10.101562 C 13.097656 9.90625 13.054688 9.90625 13.980469 10.105469 Z M 13.980469 10.105469 "/>
</g>
</svg>
