<?xml version="1.0" standalone="no"?>
<!DOCTYPE svg PUBLIC "-//W3C//DTD SVG 20010904//EN"
 "http://www.w3.org/TR/2001/REC-SVG-20010904/DTD/svg10.dtd">
<svg version="1.0" xmlns="http://www.w3.org/2000/svg"
 width="256.000000pt" height="256.000000pt" viewBox="0 0 256.000000 256.000000"
 preserveAspectRatio="xMidYMid meet">

<g transform="translate(0.000000,256.000000) scale(0.100000,-0.100000)"
fill="#000000" stroke="none">
<path d="M1215 2030 c-42 -9 -925 -339 -975 -365 -38 -20 -39 -50 -2 -69 15
-7 234 -94 487 -192 l460 -179 100 0 100 1 441 187 c243 103 444 187 448 187
3 0 6 -121 6 -268 0 -257 -1 -272 -25 -352 -14 -46 -25 -87 -25 -92 0 -4 34
-8 75 -8 l75 0 -6 28 c-4 15 -15 51 -26 81 -16 48 -18 89 -18 348 0 171 4 302
10 312 7 14 5 23 -8 34 -19 18 -864 322 -952 343 -61 15 -105 16 -165 4z"/>
<path d="M582 1153 c6 -218 10 -222 341 -367 267 -116 322 -132 404 -116 67
12 517 203 563 239 19 15 45 47 58 71 19 39 22 59 22 177 l0 133 -100 0 -100
0 -168 -71 c-310 -131 -314 -131 -652 0 -182 70 -186 71 -279 71 l-93 0 4
-137z"/>
</g>
</svg>
