<?xml version="1.0" standalone="no"?>
<!DOCTYPE svg PUBLIC "-//W3C//DTD SVG 20010904//EN"
 "http://www.w3.org/TR/2001/REC-SVG-20010904/DTD/svg10.dtd">
<svg version="1.0" xmlns="http://www.w3.org/2000/svg"
 width="256.000000pt" height="256.000000pt" viewBox="0 0 256.000000 256.000000"
 preserveAspectRatio="xMidYMid meet">

<g transform="translate(0.000000,256.000000) scale(0.100000,-0.100000)"
fill="#000000" stroke="none">
<path d="M1116 2549 c-484 -67 -895 -403 -1046 -857 -50 -152 -64 -242 -64
-412 0 -170 14 -260 64 -412 122 -366 432 -676 798 -798 152 -50 242 -64 412
-64 170 0 260 14 412 64 366 122 676 432 798 798 50 152 64 242 64 412 0 170
-14 260 -64 412 -103 307 -345 584 -641 734 -85 42 -217 87 -324 109 -96 20
-314 28 -409 14z m324 -164 c154 -23 320 -80 320 -108 0 -8 -9 -22 -20 -32
-25 -23 -87 -16 -130 15 -24 17 -40 21 -68 16 -86 -13 -243 -121 -269 -184
-15 -37 -9 -57 16 -47 121 51 165 -19 73 -117 -33 -36 -56 -35 -125 2 -70 37
-114 40 -119 8 -4 -30 -101 -79 -169 -86 -27 -2 -49 -8 -49 -11 0 -4 14 -20
30 -36 39 -37 36 -66 -6 -77 -17 -4 -37 -14 -43 -22 -29 -35 94 -55 142 -23
14 9 28 30 32 46 5 25 14 33 45 42 57 17 87 0 176 -98 84 -92 115 -113 167
-113 l34 0 -10 40 c-9 32 -8 46 6 75 28 59 105 96 156 75 47 -19 45 -36 -6
-92 -46 -48 -47 -50 -28 -64 31 -23 10 -44 -110 -104 -61 -31 -119 -62 -130
-69 -42 -27 -105 4 -285 141 -68 52 -125 73 -172 63 -58 -13 -179 -75 -210
-108 -16 -17 -44 -61 -61 -97 -28 -57 -32 -76 -32 -150 0 -73 4 -92 27 -135
59 -113 141 -161 304 -178 l105 -11 38 -41 c50 -54 75 -133 101 -310 32 -223
33 -227 98 -280 71 -59 131 -94 196 -116 l51 -17 -60 -8 c-113 -17 -321 -9
-420 15 -365 88 -645 324 -787 661 -45 105 -72 213 -65 260 6 48 42 120 83
168 29 34 33 44 25 65 -11 27 -63 75 -98 88 -26 10 -26 3 8 144 11 44 40 121
63 171 l43 91 53 6 c97 12 193 86 261 202 17 28 35 58 42 68 10 15 8 22 -17
43 -33 29 -33 29 64 87 215 129 480 181 730 142z m401 -1156 c78 -16 107 -18
131 -10 17 6 35 7 42 3 6 -4 55 -9 108 -12 124 -7 146 -21 170 -110 21 -76 31
-89 58 -72 27 17 26 4 -6 -94 -88 -271 -285 -505 -537 -639 -79 -42 -183 -83
-251 -99 l-28 -7 28 24 c25 22 28 32 35 123 14 179 44 253 245 604 52 92 94
174 94 183 0 22 -14 21 -92 -3 -77 -24 -116 -25 -140 -3 -25 23 -24 87 2 113
25 25 19 25 141 -1z"/>
</g>
</svg>
