<?xml version="1.0" standalone="no"?>
<!DOCTYPE svg PUBLIC "-//W3C//DTD SVG 20010904//EN"
 "http://www.w3.org/TR/2001/REC-SVG-20010904/DTD/svg10.dtd">
<svg version="1.0" xmlns="http://www.w3.org/2000/svg"
 width="512.000000pt" height="512.000000pt" viewBox="0 0 512.000000 512.000000"
 preserveAspectRatio="xMidYMid meet">

<g transform="translate(0.000000,512.000000) scale(0.100000,-0.100000)"
fill="#000000" stroke="none">
<path d="M640 4876 c0 -129 4 -237 8 -240 4 -2 437 -119 962 -260 l955 -255
947 253 c520 139 953 256 962 259 14 6 16 36 16 242 0 150 -4 235 -10 235 -6
0 -439 -214 -962 -476 l-953 -476 -952 476 c-524 262 -958 476 -963 476 -6 0
-10 -85 -10 -234z"/>
<path d="M0 2556 c0 -1153 4 -1917 9 -1920 14 -9 2368 -636 2386 -636 13 0 15
212 15 1914 0 1153 -4 1917 -9 1920 -14 9 -2368 636 -2386 636 -13 0 -15 -212
-15 -1914z"/>
<path d="M3920 4156 c-641 -171 -1173 -315 -1182 -319 -17 -6 -18 -107 -18
-1922 0 -1704 2 -1915 15 -1915 12 0 2048 539 2328 617 l57 16 0 1918 c0 1821
-1 1919 -17 1918 -10 0 -542 -141 -1183 -313z"/>
</g>
</svg>
