<?xml version="1.0" standalone="no"?>
<!DOCTYPE svg PUBLIC "-//W3C//DTD SVG 20010904//EN"
 "http://www.w3.org/TR/2001/REC-SVG-20010904/DTD/svg10.dtd">
<svg version="1.0" xmlns="http://www.w3.org/2000/svg"
 width="74.000000pt" height="94.000000pt" viewBox="0 0 74.000000 94.000000"
 preserveAspectRatio="xMidYMid meet">

<g transform="translate(0.000000,94.000000) scale(0.100000,-0.100000)"
fill="#000000" stroke="none">
<path d="M205 870 l-160 -69 -3 -105 c-2 -77 -7 -107 -17 -116 -22 -18 -18
-57 5 -70 45 -24 80 31 45 70 -12 14 -15 38 -13 117 l3 100 145 -63 c80 -35
151 -63 158 -63 7 -1 71 24 142 54 71 31 142 60 157 66 26 10 19 14 -121 75
-82 35 -157 66 -165 68 -9 2 -88 -27 -176 -64z"/>
<path d="M171 669 c-15 -45 -14 -120 4 -162 34 -82 143 -146 225 -131 120 22
203 132 186 247 -12 81 -18 83 -124 38 l-92 -39 -91 39 c-49 21 -92 39 -94 39
-1 0 -8 -14 -14 -31z"/>
<path d="M159 396 c-53 -19 -104 -53 -134 -87 -24 -29 -25 -37 -25 -150 0 -66
5 -129 10 -140 10 -18 25 -19 358 -19 257 0 351 3 360 12 8 8 12 56 12 149 0
122 -2 139 -20 162 -28 35 -118 77 -171 80 l-44 2 -65 -147 c-36 -81 -67 -148
-70 -148 -3 0 -33 66 -66 148 -66 162 -70 166 -145 138z"/>
</g>
</svg>
