<?xml version="1.0" standalone="no"?>
<!DOCTYPE svg PUBLIC "-//W3C//DTD SVG 20010904//EN"
 "http://www.w3.org/TR/2001/REC-SVG-20010904/DTD/svg10.dtd">
<svg version="1.0" xmlns="http://www.w3.org/2000/svg"
 width="512.000000pt" height="512.000000pt" viewBox="0 0 512.000000 512.000000"
 preserveAspectRatio="xMidYMid meet">

<g transform="translate(0.000000,512.000000) scale(0.100000,-0.100000)"
fill="#000000" stroke="none">
<path d="M109 5093 c-45 -24 -59 -37 -82 -83 l-27 -54 2 -1436 c3 -1096 6
-1443 15 -1470 39 -110 132 -208 240 -251 l58 -24 1000 0 1000 0 42 23 c24 12
55 41 70 64 24 35 28 52 28 108 0 56 -4 73 -28 108 -15 23 -46 52 -70 64 l-42
23 -963 3 -962 3 2 982 3 982 2165 0 2165 0 3 -982 2 -982 -367 -3 c-336 -3
-371 -5 -403 -22 -56 -29 -88 -66 -106 -118 -20 -63 -6 -134 39 -185 62 -70
47 -68 502 -68 407 0 410 0 468 24 108 43 201 141 240 251 9 27 12 374 15
1470 l2 1436 -27 54 c-23 46 -37 59 -82 83 l-55 27 -2396 0 -2396 0 -55 -27z"/>
<path d="M840 3731 c-72 -18 -121 -69 -142 -145 -25 -92 37 -199 129 -226 27
-8 287 -10 868 -8 819 3 830 3 862 24 65 41 96 101 94 177 -2 77 -41 135 -113
167 -42 19 -68 20 -858 19 -448 -1 -826 -4 -840 -8z"/>
<path d="M3400 3731 c-72 -18 -121 -69 -142 -145 -25 -92 36 -199 129 -226 26
-8 176 -10 475 -8 l436 3 43 30 c49 34 80 88 86 148 3 32 -2 55 -24 97 -23 46
-37 60 -82 83 l-55 27 -420 -1 c-232 -1 -432 -4 -446 -8z"/>
<path d="M840 3141 c-85 -21 -150 -104 -150 -192 0 -74 65 -158 138 -179 26
-8 295 -10 867 -8 l830 3 35 22 c57 36 83 79 88 144 2 31 -1 73 -7 92 -15 45
-78 103 -128 116 -41 12 -1628 14 -1673 2z"/>
<path d="M4032 2985 c-61 -57 -78 -67 -153 -91 -113 -35 -279 -119 -419 -211
-107 -71 -153 -114 -663 -622 l-547 -546 230 -230 230 -230 544 545 c525 527
545 549 615 660 96 153 184 334 215 444 23 81 31 94 86 152 73 76 80 113 29
163 -51 51 -85 44 -167 -34z"/>
<path d="M1668 943 c-450 -451 -439 -437 -446 -611 -4 -99 -3 -105 27 -167 52
-105 141 -151 281 -143 144 8 145 9 593 456 l397 397 -227 227 c-125 126 -230
228 -233 228 -3 0 -179 -174 -392 -387z"/>
<path d="M2905 1129 c-20 -6 -177 -154 -452 -427 -375 -371 -423 -422 -433
-460 -15 -58 -4 -107 34 -147 41 -43 100 -60 159 -45 37 10 92 61 441 408 219
219 411 415 427 436 56 75 31 181 -51 224 -47 23 -76 26 -125 11z"/>
</g>
</svg>
