<?xml version="1.0" standalone="no"?>
<!DOCTYPE svg PUBLIC "-//W3C//DTD SVG 20010904//EN"
 "http://www.w3.org/TR/2001/REC-SVG-20010904/DTD/svg10.dtd">
<svg version="1.0" xmlns="http://www.w3.org/2000/svg"
 width="250.000000pt" height="250.000000pt" viewBox="0 0 250.000000 250.000000"
 preserveAspectRatio="xMidYMid meet">

<g transform="translate(0.000000,250.000000) scale(0.100000,-0.100000)"
fill="#000000" stroke="none">
<path d="M1186 2115 c-54 -19 -94 -61 -111 -118 -22 -73 -4 -136 52 -189 106
-100 278 -39 306 109 16 81 -47 179 -130 202 -49 14 -69 13 -117 -4z"/>
<path d="M973 1660 c-17 -10 -37 -28 -42 -39 -7 -12 -11 -112 -11 -269 0 -235
1 -251 20 -275 11 -14 36 -31 55 -37 l34 -11 3 -295 3 -296 33 -29 c46 -41
111 -41 153 0 l29 29 29 -29 c42 -41 107 -41 153 0 l33 29 3 296 3 295 34 11
c19 6 44 23 55 37 19 24 20 40 20 277 0 275 -1 281 -60 311 -17 9 -56 15 -93
15 l-64 0 -54 -70 c-29 -38 -56 -70 -59 -70 -3 0 -30 32 -59 70 l-54 70 -66 0
c-48 0 -75 -5 -98 -20z"/>
</g>
</svg>
